<svg width="32" height="32" viewBox="0 0 32 32" version="1.1" xmlns="http://www.w3.org/2000/svg">
  <circle cx="16" cy="16" r="16" fill="#F5F6F9"/>
  <path d="M 2.57371 6.73166C 2.57951 6.73842 2.622 6.80023 2.64518 6.76064C 2.40471 5.1941 2.13816 3.65461 1.77601 2.2117C 1.76538 2.15568 1.74704 2.11029 1.73448 2.05524L 1.73448 2.04365C 1.7142 2.00502 1.7142 1.94321 1.69488 1.90457C 1.69488 1.89974 1.69488 1.89491 1.69488 1.89491C 1.65336 1.76646 1.62052 1.63608 1.58093 1.51149C 1.58093 1.50666 1.58093 1.4999 1.58093 1.49604C 1.47469 1.21306 1.40902 0.930077 1.27382 0.630677C 1.17918 0.413371 0.972507 -0.00192502 0.727207 6.58936e-06C 0.475147 0.0019382 0.348635 0.396952 0.251094 0.61619C 0.124581 0.896273 0.0386298 1.11937 -5.15764e-08 1.46899C -5.15764e-08 1.47286 -5.15764e-08 1.47865 -5.15764e-08 1.48348C -5.15764e-08 1.66216 -5.15764e-08 1.836 -5.15764e-08 2.01564C 0.0666364 2.69363 0.269444 3.24028 0.490599 3.76568C 0.573654 3.89992 0.636427 4.05639 0.710789 4.19932C 0.710789 4.20415 0.710789 4.20802 0.710789 4.21478C 1.23809 5.11974 1.88803 5.99379 2.57371 6.73166Z" transform="translate(8.79419 4.8667)" fill="#039BE6"/>
  <path d="M 27.3123 4.68705C 24.2904 1.66408 20.2729 0 15.9995 0C 11.7261 0 7.70762 1.66408 4.6858 4.68705C 1.66398 7.70905 0 11.7258 0 15.9995C 0 20.2732 1.66398 24.291 4.6858 27.3149C 6.49754 29.1267 8.6695 30.447 11.0404 31.2148C 11.1051 30.7551 11.1457 30.2635 11.1737 29.7651C 11.1804 29.7217 11.1544 29.6434 11.1843 29.6251C 11.1843 29.5681 11.1843 29.5131 11.1843 29.458C 11.194 29.3972 11.1689 29.2967 11.2007 29.2629C 11.2007 29.1712 11.2007 29.0833 11.2007 28.9954C 11.2085 28.7984 11.1814 28.5666 11.2162 28.3937L 11.2162 28.3792C 11.1814 28.2005 11.2094 27.9639 11.2007 27.763C 11.2007 27.679 11.2007 27.5959 11.2007 27.5119C 11.1698 27.4694 11.194 27.3661 11.1843 27.3023C 11.1843 27.2492 11.1843 27.198 11.1843 27.1478C 11.1553 27.1285 11.1814 27.0483 11.1737 27.0068C 11.1737 26.9797 11.1737 26.9508 11.1737 26.9228C 11.7792 27.0734 12.4214 27.1845 13.0067 27.3554C 12.6928 27.4337 12.6194 27.7418 12.5846 28.0972C 12.5779 28.1435 12.6049 28.2189 12.5721 28.2382C 12.5943 29.5768 12.8908 30.644 13.1535 31.7421C 14.0825 31.9102 15.0338 32 15.9986 32C 18.8292 32 21.5458 31.265 23.936 29.8936C 23.9447 29.882 23.9582 29.8733 23.964 29.8636C 23.9872 29.8018 23.9804 29.6714 23.9911 29.5826C 24.02 29.2996 24.049 28.9886 24.048 28.7163C 24.048 28.6284 24.048 28.5376 24.048 28.4497C 24.02 27.6162 23.8414 26.7315 23.0813 26.6475C 22.556 26.5857 22.1909 26.8358 21.794 26.9817C 22.6506 26.0053 23.3102 24.8289 23.3904 23.0779C 23.3904 22.9552 23.3904 22.8335 23.3904 22.7128C 23.3904 22.6665 23.3904 22.6211 23.3904 22.5718C 23.2397 20.4374 22.3734 19.0167 21.4463 17.6597C 21.3555 17.5738 21.2831 17.4646 21.2068 17.3661C 21.1305 17.2676 21.0446 17.1701 20.9857 17.059C 20.9857 17.0493 20.9857 17.0387 20.9857 17.03C 21.0175 17.03 21.0455 17.03 21.0813 17.03C 21.5584 16.8784 21.7708 16.4621 21.9369 15.9957C 22.0055 15.7059 22.0625 15.4036 22.0895 15.0704C 22.0992 15.0057 22.0702 14.9043 22.1059 14.8608C 22.1059 14.8512 22.1059 14.8425 22.1059 14.8319C 22.0702 14.7952 22.0992 14.6966 22.0895 14.6368C 22.075 14.5151 22.0528 14.403 22.0335 14.2881C 22.0036 14.2456 21.9949 14.1857 21.9765 14.1326L 21.9765 14.1181C 21.8896 13.9501 21.7979 13.7975 21.6694 13.641C 21.5342 13.4768 21.3507 13.3194 21.3053 13.1253C 21.2059 12.2638 21.4444 11.5095 21.6839 10.8991C 21.7235 10.8054 21.7554 10.7079 21.8123 10.6335C 21.8123 10.5678 21.849 10.5427 21.8655 10.4925C 21.8935 10.4259 21.9109 10.3496 21.9485 10.2955C 21.9765 10.1535 22.0229 10.0251 22.0335 9.86376C 22.0335 9.75463 22.0335 9.64742 22.0335 9.54215C 21.9591 8.69321 21.7718 7.95533 21.6124 7.18945C 21.5902 7.15178 21.5922 7.08707 21.5709 7.04941C 21.5709 7.04458 21.5709 7.04071 21.5709 7.03395C 21.0069 5.17768 20.1223 3.64108 18.4786 2.86554C 18.4689 2.86458 18.4612 2.86168 18.4641 2.84912C 18.2922 2.79987 18.1444 2.72164 17.96 2.68204C 17.9513 2.68204 17.9426 2.68204 17.9465 2.66948C 17.8489 2.66948 17.8045 2.72164 17.7214 2.73902C 17.7099 2.76896 17.6596 2.76027 17.6355 2.77959C 17.6249 2.77959 17.6104 2.77959 17.5959 2.77959C 17.5544 2.95053 17.4974 3.12824 17.5544 3.31174C 17.5969 3.45372 17.705 3.60149 17.8064 3.74539C 18.4419 4.65035 19.0416 5.68955 19.5419 6.71234C 19.5776 6.79444 19.6259 6.86301 19.652 6.95089C 19.7003 7.00112 19.7118 7.08997 19.7524 7.14502C 19.7717 7.20104 19.8065 7.2416 19.821 7.29955C 19.8567 7.33722 19.8635 7.40193 19.8924 7.44056C 20.3193 8.37932 20.7848 9.27848 20.8582 10.5756C 20.8823 10.6741 20.8823 10.8701 20.8582 10.9667C 20.8582 11.1579 20.8321 11.3115 20.7858 11.4573C 20.7761 11.5182 20.7626 11.5742 20.7317 11.6128C 20.7326 11.666 20.7017 11.6862 20.6901 11.7249C 20.5714 11.975 20.3966 12.1691 20.1281 12.2686C 20.0808 12.285 20.0421 12.313 19.9745 12.3111C 19.8161 12.3362 19.5921 12.1508 19.4424 12.089C 19.3883 12.0928 19.3738 12.0581 19.3323 12.0474C 19.2628 12.0204 19.1884 12.0021 19.1353 11.9625C 18.9412 11.9026 18.7529 11.8388 18.5607 11.7809C 18.4728 11.7625 18.3762 11.748 18.3077 11.7123C 17.9407 11.6437 17.5689 11.5713 17.1623 11.5433C 17.114 11.5336 17.03 11.5597 17.0068 11.5298C 16.9595 11.5298 16.9131 11.5298 16.8668 11.5298C 16.719 11.5298 16.5683 11.5298 16.4177 11.5298C 16.3713 11.5298 16.325 11.5298 16.2796 11.5298C 16.2583 11.5597 16.1811 11.5336 16.1386 11.5433C 15.479 11.5848 14.8783 11.6833 14.3037 11.8089C 14.2438 11.8379 14.1665 11.8504 14.097 11.8649C 13.9772 11.8968 13.87 11.9402 13.7445 11.9625C 13.6634 12.0059 13.5591 12.0291 13.4635 12.06C 13.4065 12.0784 13.3669 12.1122 13.2964 12.1151C 13.1206 12.2039 12.9304 12.2725 12.7488 12.3546C 12.7324 12.3546 12.7305 12.3729 12.7083 12.3691C 11.3446 13.0509 10.3142 14.0602 9.68643 15.477C 9.66326 15.5746 9.62366 15.6557 9.58793 15.7426C 9.56668 15.8093 9.55123 15.8836 9.51839 15.9396C 9.49715 16.0594 9.46142 16.1608 9.43534 16.2738C 9.43534 16.2873 9.43534 16.3018 9.43534 16.3163C 9.02876 16.5336 8.68109 16.8108 8.3286 17.086C 8.20305 17.1942 8.07847 17.3111 7.95002 17.4212C 7.84862 17.5351 7.74046 17.6395 7.62843 17.7428C 7.39665 18.0161 7.04802 18.3744 6.84521 18.7646C 6.76892 18.9114 6.62212 19.2688 6.88577 19.2823C 6.93792 19.2823 6.99007 19.2823 7.04126 19.2823C 7.25179 19.2456 7.45942 19.207 7.69893 19.1963C 7.77909 19.1963 7.85924 19.1963 7.93843 19.1963C 7.98576 19.2079 8.06688 19.1799 8.09102 19.2137C 8.72648 19.2552 9.21322 19.3769 9.6874 19.5488C 9.95105 19.6474 10.2002 19.7855 10.5682 19.7575C 10.3035 19.8367 10.0341 19.8115 9.78591 19.8415C 9.02104 19.94 8.51209 20.3369 8.04853 20.7088C 7.95582 20.8121 7.85828 20.9116 7.75494 21.0053C 7.65837 21.1617 7.51351 21.2033 7.53185 21.4254C 7.54924 21.6495 7.80323 21.7741 8.007 21.8716C 8.53816 22.1304 9.19294 22.2734 9.81102 22.3758C 9.95491 22.397 10.1133 22.4376 10.233 22.4318C 10.3151 22.4289 10.4262 22.3854 10.5382 22.3622C 10.8608 22.3004 11.335 22.2686 11.4489 22.5274C 11.56 22.7804 11.3707 23.1214 11.2799 23.2836C 11.1969 23.4343 11.1611 23.4884 11.2123 23.6622C 11.2973 23.9664 11.4895 24.1905 11.672 24.4329C 11.7638 24.5092 11.8497 24.5942 11.925 24.6821C 12.7063 25.3533 13.6605 25.8469 14.6822 26.2651C 15.5775 26.6272 16.5278 26.9797 17.4964 27.2579C 17.6336 27.2975 17.7861 27.3139 17.9165 27.3825C 17.6741 27.4491 17.4095 27.4936 17.1053 27.4945C 17.0783 27.5283 16.9884 27.5003 16.9373 27.5109C 16.8262 27.5109 16.7142 27.5109 16.6012 27.5109C 16.5403 27.5003 16.4428 27.5293 16.4071 27.4945C 15.2665 27.4337 14.2998 27.254 13.3109 27.0058C 12.5026 26.802 11.6643 26.5529 10.8917 26.2902C 10.7719 26.2535 10.6367 26.1733 10.5566 26.1656C 10.4639 26.1588 10.318 26.2226 10.206 26.2496C 9.84868 26.3394 9.47011 26.4292 9.07222 26.4331C 8.98241 26.4544 8.79408 26.4544 8.7091 26.4331C 7.52316 26.3665 6.85873 25.7793 6.68007 24.713C 6.52748 24.7594 6.35171 24.8337 6.16146 24.8366C 5.1793 24.855 5.09528 23.4922 5.44681 22.765C 5.55014 22.5477 5.72591 22.4173 5.86691 22.2618C 6.14794 21.9469 6.25707 21.41 5.99246 20.8894C 5.9123 20.73 5.73653 20.6334 5.6303 20.4142C 5.46033 20.0694 5.55594 19.7121 5.69983 19.4194C 5.84759 19.1249 6.02529 18.8757 6.17884 18.6371C 6.5014 18.1098 7.01035 17.6781 7.33774 17.2773C 7.3783 17.2242 7.42562 17.1788 7.47874 17.1372C 7.49805 17.0967 7.54151 17.0803 7.56083 17.0387C 7.60332 16.9856 7.64871 16.9402 7.70086 16.8987C 7.73466 16.8427 7.79454 16.8137 7.82737 16.7596C 7.87083 16.6089 8.17697 16.4969 8.20498 16.325C 8.20884 16.297 8.20112 16.2709 8.20498 16.241C 8.20498 16.1878 8.20498 16.1376 8.20498 16.0855C 8.21464 16.043 8.18663 15.9657 8.22043 15.9474C 8.22912 15.761 8.27162 15.6084 8.33149 15.4712C 8.76125 14.3953 9.60531 13.7299 10.4726 13.0905C 9.88248 12.4096 9.39092 11.6273 8.97565 10.7678L 8.97565 10.7533C 8.93025 10.6857 8.89356 10.6113 8.86362 10.5302C 8.71007 10.1979 8.56713 9.85604 8.45607 9.48034C 8.42903 9.43784 8.40972 9.38086 8.40103 9.31712C 8.20112 8.68645 8.06591 7.99203 8.03791 7.18945C 8.03791 7.02623 8.03791 6.8659 8.03791 6.70268C 8.04177 6.65729 8.02825 6.59934 8.05046 6.5752C 8.06012 6.51821 8.03211 6.4255 8.06591 6.39266C 8.06591 6.38976 8.06591 6.383 8.06591 6.37817C 8.1113 5.64416 8.29866 5.03474 8.52754 4.46009C 8.60287 4.27465 8.66081 4.07183 8.76608 3.91537C 8.77091 3.90861 8.77477 3.89219 8.78153 3.8864C 9.10602 3.55899 9.6874 3.2113 10.1954 3.55223C 10.6116 3.83424 10.8125 4.37316 10.9786 4.96617C 11.137 5.5302 11.2451 6.20336 11.3417 6.78478C 11.4595 7.41062 11.6498 7.96789 11.8584 8.50487C 11.8903 8.54447 11.9134 8.59083 11.9279 8.64492C 11.9279 8.64974 11.9279 8.65651 11.9279 8.6594C 12.0158 8.80427 12.0863 8.96846 12.1665 9.12009C 12.1665 9.12589 12.1665 9.13168 12.1665 9.13168C 12.2157 9.18287 12.2437 9.25627 12.2785 9.31808C 12.2785 9.32291 12.2785 9.32677 12.2785 9.33353C 12.5731 9.79422 12.9362 10.2762 13.3833 10.6625C 13.5079 10.7668 13.6981 10.9677 13.8459 10.9976C 14.0207 11.0362 14.1984 10.9686 14.3635 10.9976C 14.4804 10.9976 14.5973 10.9976 14.7141 10.9976C 14.7363 10.9976 14.7605 10.9976 14.7836 10.9976C 14.858 10.9648 14.9932 10.9918 15.0927 10.9841C 15.1468 10.9841 15.2047 10.9841 15.2598 10.9841C 15.2839 10.9841 15.3071 10.9841 15.3303 10.9841C 15.3901 10.9513 15.5118 10.9802 15.5968 10.9686C 15.6538 10.9686 15.7079 10.9686 15.7648 10.9686C 15.8073 10.9358 15.9087 10.9648 15.9734 10.9542C 16.0169 10.9542 16.0575 10.9542 16.1009 10.9542C 16.1318 10.9232 16.2255 10.9513 16.2834 10.9426C 16.3201 10.9426 16.3568 10.9426 16.3935 10.9426C 16.4225 10.9088 16.5114 10.9348 16.5625 10.9281C 17.5148 10.8595 18.4902 10.8112 19.2647 10.562C 19.3381 10.5157 19.4154 10.4741 19.4743 10.4094C 19.4743 10.3496 19.4743 10.2858 19.4743 10.2279C 19.4743 10.2037 19.4743 10.1815 19.4743 10.1574C 19.4434 10.1236 19.4704 10.0318 19.4598 9.97483C 19.3796 8.84001 19.1295 7.87903 18.8156 6.98083C 18.7847 6.93254 18.7702 6.8659 18.7432 6.81182L 18.7432 6.79926C 18.7026 6.71331 18.6727 6.61866 18.6321 6.5327C 18.6321 6.5327 18.6321 6.52401 18.6321 6.51821C 18.3753 5.94549 18.129 5.44424 17.8209 4.95071C 17.5215 4.47747 17.1236 4.02547 17.0792 3.32816C 17.0792 3.32333 17.0792 3.3185 17.0792 3.31271C 17.056 3.248 17.056 3.08381 17.0792 3.0191C 17.0792 3.01428 17.0792 3.00945 17.0792 3.00269C 17.0715 2.90514 17.1063 2.84526 17.1208 2.76606C 17.1391 2.73129 17.1449 2.67914 17.1768 2.655C 17.2579 2.47343 17.396 2.35077 17.5814 2.2764C 17.7224 2.19044 17.9358 2.17403 18.1425 2.15085C 18.2062 2.15085 18.271 2.15085 18.3386 2.15085C 18.8398 2.18079 19.2502 2.30055 19.5834 2.50143C 20.3174 2.88969 20.8833 3.46434 21.3893 4.08246C 21.9002 4.70154 22.3532 5.39498 22.7337 6.13865L 22.7337 6.14831C 22.8679 6.37914 22.9741 6.63315 23.0833 6.88136L 23.0833 6.89391C 23.1103 6.92772 23.119 6.9789 23.1402 7.02043C 23.4995 7.8066 23.6009 8.85353 23.6444 9.95938C 23.6772 9.99221 23.6492 10.084 23.6579 10.1409C 23.6579 10.1844 23.6579 10.2259 23.6579 10.2684C 23.6917 10.309 23.6637 10.4133 23.6733 10.477C 23.6733 10.534 23.6733 10.5891 23.6733 10.6451C 23.6733 10.6634 23.6733 10.6818 23.6733 10.7011C 23.7033 10.7851 23.6791 10.9281 23.6849 11.0362C 23.6849 11.1859 23.6849 11.3366 23.6849 11.4844C 23.6849 11.5269 23.6849 11.5684 23.6849 11.6109C 23.6849 11.7287 23.6849 11.8437 23.6849 11.9596C 23.6801 12.1044 23.7042 12.287 23.6733 12.4077C 23.6733 12.4647 23.6733 12.5197 23.6733 12.5767C 23.6637 12.6482 23.6917 12.7525 23.6579 12.7979C 23.6579 12.8336 23.6579 12.8655 23.6579 12.8983C 23.6492 12.9485 23.6772 13.0374 23.6444 13.0654C 23.6444 13.0934 23.6444 13.1234 23.6444 13.1494C 23.6337 13.191 23.6637 13.2702 23.6279 13.2904C 23.6086 13.8458 23.542 14.3586 23.4193 14.8154C 23.4039 14.884 23.3991 14.9603 23.3633 15.0134C 23.3498 15.1226 23.3112 15.2114 23.2803 15.3061C 23.2494 15.421 23.2214 15.5359 23.1692 15.6277C 23.1692 15.6528 23.1634 15.6702 23.1557 15.6827C 23.1364 15.732 23.1316 15.7919 23.0968 15.8228C 23.0253 16.0642 22.9326 16.2825 22.8447 16.5095C 22.8216 16.5761 22.809 16.6505 22.7771 16.7065C 22.7694 16.7789 22.751 16.8398 22.7327 16.9016C 22.7327 16.9566 22.7327 17.0136 22.7327 17.0687C 22.7366 17.0889 22.753 17.0957 22.7472 17.1266C 22.809 17.2232 22.8582 17.3285 22.9152 17.4328C 23.881 18.8216 24.7492 20.3254 25.3798 22.0657C 26.0047 23.8042 26.4064 25.7503 26.6111 27.9301L 26.6367 27.9301C 26.6367 27.9301 26.6894 27.9359 27.3123 27.312C 30.3322 24.289 32 20.2703 32 15.9966C 32 11.7258 30.3322 7.70809 27.3123 4.68705ZM 17.7369 16.4689C 17.4423 16.4148 17.1507 16.3173 16.9112 16.2873C 16.6108 16.2477 16.4158 16.4196 16.1424 16.4844C 16.2091 16.297 16.323 16.1531 16.436 16.0072C 16.6012 15.8324 16.7634 15.6528 16.9962 15.5446C 17.0609 15.5195 17.1043 15.4693 17.1893 15.4635C 17.2289 15.4258 17.2965 15.4191 17.3603 15.4055C 17.4491 15.3708 17.6229 15.3563 17.7118 15.365C 17.7243 15.3408 17.8364 15.3408 17.8518 15.365C 18.4313 15.4055 18.8707 15.5862 19.4752 15.6035C 19.5641 15.6035 19.65 15.6035 19.7408 15.6035C 19.8673 15.5948 19.9678 15.5717 20.0924 15.561C 20.1377 15.533 20.1947 15.5147 20.2604 15.505C 20.2536 15.5659 20.242 15.619 20.2179 15.6576C 20.2131 15.7136 20.1986 15.759 20.1764 15.7986C 20.1484 15.8653 20.1252 15.9338 20.0759 15.9812C 20.0557 16.0488 20.0035 16.0932 19.9658 16.1473C 19.9253 16.2004 19.878 16.2477 19.8248 16.2873C 19.5969 16.4737 19.2995 16.5935 18.8997 16.6109C 18.8253 16.6109 18.7529 16.6109 18.6766 16.6109C 18.3849 16.5983 18.0604 16.5297 17.7369 16.4689Z" fill="#039BE6"/>
</svg>
